<svg xmlns="http://www.w3.org/2000/svg">
<g>
  <path
    fill-rule="evenodd"
    clip-rule="evenodd"
    d="M22 9.89941C15.381 9.89941 10 15.2804 10 21.8994C10 28.5184 15.381 33.8994 22 33.8994C28.619 33.8994 34 28.5134 34 21.8994C34 15.2804 28.619 9.89941 22 9.89941ZM22 11.0994C27.953 11.0994 32.8 15.9414 32.8 21.8994C32.8 27.8574 27.953 32.6994 22 32.6994C16.047 32.6994 11.2 27.8524 11.2 21.8994C11.2 15.9414 16.047 11.0994 22 11.0994ZM22 12.2994C20.4094 12.2955 18.8429 12.6877 17.4419 13.4407C16.0408 14.1936 14.8493 15.2837 13.975 16.6124C14.2 16.6214 14.435 16.6494 14.612 16.6494C15.616 16.6494 17.162 16.4994 17.162 16.4994C17.678 16.4714 17.716 17.2634 17.2 17.3244C17.2 17.3244 16.69 17.3664 16.112 17.3994L19.3 26.9244L21.4 20.6244L20.238 17.3994C19.722 17.3714 19.225 17.3244 19.225 17.3244C18.705 17.2914 18.747 16.4664 19.262 16.4994C19.262 16.4994 20.87 16.6494 21.812 16.6494C22.816 16.6494 24.362 16.4994 24.362 16.4994C24.882 16.4714 24.953 17.2634 24.437 17.3244C24.437 17.3244 23.889 17.3664 23.313 17.3994L26.8 26.9994L27.775 23.8114C28.089 22.5314 28.488 21.5244 28.488 20.6994C28.488 19.7994 28.075 19.3824 27.7 18.7494C27.227 17.9524 26.762 17.2914 26.762 16.4994C26.762 15.6184 27.432 14.8114 28.375 14.8114C28.417 14.8114 28.445 14.8074 28.488 14.8114C26.7169 13.19 24.4012 12.2934 22 12.2994ZM30.438 17.2874C30.48 17.5914 30.456 17.9054 30.475 18.2624C30.522 19.2374 30.33 20.7374 30.1 21.4494C29.369 23.7134 27.212 29.9244 27.212 29.9244C27.25 29.9104 27.32 29.8824 27.475 29.7744C28.7524 28.8974 29.796 27.7214 30.5149 26.3489C31.2339 24.9763 31.6064 23.4488 31.6 21.8994C31.6067 20.2887 31.2067 18.7023 30.437 17.2874H30.438ZM13.224 17.9994C12.6784 19.2271 12.3976 20.556 12.4 21.8994C12.3985 23.6993 12.9043 25.4631 13.8594 26.9886C14.8145 28.5142 16.1803 29.7396 17.8 30.5244L13.225 17.9994H13.224ZM22.187 22.7244L19.299 31.1244C20.1763 31.3784 21.0857 31.5047 21.999 31.4994C23.115 31.4994 24.189 31.3264 25.187 30.9744C25.1592 30.9259 25.1342 30.8758 25.112 30.8244L22.187 22.7244Z"
  />
</g>
</svg>
