<svg xmlns="http://www.w3.org/2000/svg">
    <g clip-path="url(#clip0_5077_1475)">
        <path d="M31.75 19.04C31.88 19.36 31.94 19.69 31.94 20C31.94 20.27 31.92 20.53 31.87 20.78C31.72 21.47 31.45 21.99 31.06 22.34C30.76 22.61 30.47 22.73 30.21 22.67C29.95 22.62 29.74 22.4 29.58 21.99C29.46 21.66 29.39 21.34 29.39 21.03C29.39 20.77 29.41 20.5 29.47 20.26C29.56 19.83 29.74 19.41 30.03 19C30.38 18.49 30.75 18.28 31.13 18.35C31.38 18.4 31.59 18.62 31.75 19.04Z" fill="#673DE6"/>
        <path d="M25.12 19.04C24.97 18.62 24.75 18.4 24.5 18.35C24.12 18.28 23.75 18.49 23.4 19C23.12 19.41 22.94 19.83 22.84 20.26C22.79 20.5 22.77 20.77 22.77 21.03C22.77 21.34 22.83 21.66 22.96 21.99C23.12 22.4 23.33 22.62 23.58 22.67C23.84 22.73 24.13 22.61 24.44 22.34C24.83 21.99 25.09 21.47 25.24 20.78C25.29 20.53 25.32 20.27 25.31 20C25.31 19.69 25.25 19.36 25.12 19.04ZM25.12 19.04C24.97 18.62 24.75 18.4 24.5 18.35C24.12 18.28 23.75 18.49 23.4 19C23.12 19.41 22.94 19.83 22.84 20.26C22.79 20.5 22.77 20.77 22.77 21.03C22.77 21.34 22.83 21.66 22.96 21.99C23.12 22.4 23.33 22.62 23.58 22.67C23.84 22.73 24.13 22.61 24.44 22.34C24.83 21.99 25.09 21.47 25.24 20.78C25.29 20.53 25.32 20.27 25.31 20C25.31 19.69 25.25 19.36 25.12 19.04ZM32.58 14H11.42C10.08 14 9 15.09 9 16.41V24.47C9 25.81 10.09 26.89 11.43 26.89H21.45L26.03 29.44L24.99 26.89H32.58C33.92 26.89 35 25.81 35 24.47V16.41C35 15.08 33.92 14 32.58 14ZM19.78 24.57C19.8 24.84 19.75 25.07 19.65 25.27C19.52 25.5 19.33 25.63 19.09 25.65C18.81 25.67 18.53 25.54 18.25 25.26C17.27 24.26 16.49 22.76 15.92 20.77C15.23 22.12 14.72 23.13 14.4 23.8C13.77 24.99 13.24 25.61 12.8 25.64C12.51 25.66 12.27 25.42 12.06 24.91C11.52 23.53 10.94 20.86 10.32 16.91C10.27 16.63 10.34 16.39 10.49 16.2C10.63 16 10.85 15.89 11.15 15.87C11.69 15.83 12 16.08 12.07 16.63C12.4 18.84 12.76 20.7 13.14 22.23L15.45 17.83C15.66 17.43 15.93 17.22 16.25 17.2C16.71 17.17 17 17.46 17.11 18.09C17.38 19.49 17.71 20.68 18.12 21.69C18.39 19.02 18.86 17.09 19.51 15.89C19.67 15.6 19.9 15.45 20.21 15.43C20.45 15.41 20.67 15.48 20.87 15.64C21.08 15.8 21.18 16 21.2 16.24C21.2 16.43 21.18 16.59 21.1 16.75C20.68 17.51 20.35 18.78 20.07 20.55C19.81 22.27 19.71 23.61 19.78 24.57ZM26.27 22.92C25.63 23.97 24.81 24.5 23.78 24.5C23.6 24.5 23.41 24.48 23.21 24.44C22.46 24.28 21.9 23.88 21.52 23.21C21.18 22.63 21.01 21.94 21.01 21.12C21.01 20.04 21.29 19.05 21.84 18.15C22.48 17.1 23.31 16.57 24.32 16.57C24.5 16.57 24.69 16.59 24.89 16.63C25.63 16.79 26.2 17.19 26.58 17.86C26.92 18.42 27.09 19.11 27.09 19.93C27.09 21.02 26.81 22.01 26.27 22.92ZM32.88 22.92C32.25 23.97 31.42 24.5 30.4 24.5C30.22 24.5 30.03 24.48 29.83 24.44C29.08 24.28 28.52 23.88 28.14 23.21C27.8 22.63 27.63 21.94 27.63 21.12C27.63 20.04 27.9 19.05 28.45 18.15C29.1 17.1 29.92 16.57 30.94 16.57C31.12 16.57 31.31 16.59 31.51 16.63C32.26 16.79 32.82 17.19 33.2 17.86C33.54 18.42 33.72 19.11 33.71 19.93C33.71 21.02 33.43 22.01 32.88 22.92ZM24.5 18.35C24.12 18.28 23.75 18.49 23.4 19C23.12 19.41 22.94 19.83 22.84 20.26C22.79 20.5 22.77 20.77 22.77 21.03C22.77 21.34 22.83 21.66 22.96 21.99C23.12 22.4 23.33 22.62 23.58 22.67C23.84 22.73 24.13 22.61 24.44 22.34C24.83 21.99 25.09 21.47 25.24 20.78C25.29 20.53 25.32 20.27 25.31 20C25.31 19.69 25.25 19.36 25.12 19.04C24.97 18.62 24.75 18.4 24.5 18.35Z" fill="#673DE6"/>
    </g>
</svg>
